<?xml version="1.0" encoding="utf-8"?>
<!-- Generator: Adobe Illustrator 17.0.0, SVG Export Plug-In . SVG Version: 6.00 Build 0)  -->
<!DOCTYPE svg PUBLIC "-//W3C//DTD SVG 1.1//EN" "http://www.w3.org/Graphics/SVG/1.1/DTD/svg11.dtd">
<svg version="1.1" id="Layer_1" xmlns="http://www.w3.org/2000/svg" xmlns:xlink="http://www.w3.org/1999/xlink" x="0px" y="0px"
	 width="83.75px" height="83.271px" viewBox="0 0 83.75 83.271" enable-background="new 0 0 83.75 83.271" xml:space="preserve">
<polygon fill="#846346" points="6.875,0 83.75,0 79.875,17.375 5.75,17.375 "/>
<polyline fill="#705336" points="6,17.375 6.875,0 0,17.375 "/>
<rect y="17.125" fill="#B79267" width="80.5" height="66.146"/>
<polygon fill="#C49C74" points="79.875,83.271 83.75,38.25 83.75,0 79.875,17.375 "/>
<polygon fill="#C1A98D" points="79.875,29.5 64.688,23.125 61.75,27.75 79.875,37.063 "/>
<path fill="none" stroke="#000000" d="M54.5,60.016c0,2.615-2.189,4.734-4.891,4.734H31.516c-2.701,0-4.891-2.119-4.891-4.734
	V40.484c0-2.615,2.189-4.734,4.891-4.734H49.61c2.701,0,4.891,2.119,4.891,4.734L54.5,60.016L54.5,60.016z"/>
<rect x="34.22" y="46.138" transform="matrix(0.6635 -0.7482 0.7482 0.6635 -27.2409 44.6229)" width="3.537" height="12.917"/>
<rect x="42.616" y="41.065" transform="matrix(0.7482 0.6635 -0.6635 0.7482 44.4848 -16.8077)" width="3.537" height="18.266"/>
</svg>
