<?xml version="1.0" encoding="utf-8"?>
<!-- Generator: Adobe Illustrator 16.0.0, SVG Export Plug-In . SVG Version: 6.00 Build 0)  -->
<!DOCTYPE svg PUBLIC "-//W3C//DTD SVG 1.1//EN" "http://www.w3.org/Graphics/SVG/1.1/DTD/svg11.dtd">
<svg version="1.1" id="Layer_1" xmlns="http://www.w3.org/2000/svg" xmlns:xlink="http://www.w3.org/1999/xlink" x="0px" y="0px"
	 width="83.75px" height="83.271px" viewBox="0 0 83.75 83.271" enable-background="new 0 0 83.75 83.271" xml:space="preserve">
<polygon fill="#846346" points="6.875,0 83.75,0 79.875,17.375 5.75,17.375 "/>
<polyline fill="#705336" points="6,17.375 6.875,0 0,17.375 "/>
<rect y="17.125" fill="#B79267" width="80.5" height="66.146"/>
<polygon fill="#C49C74" points="79.875,83.271 83.75,38.25 83.75,0 79.875,17.375 "/>
<polygon fill="#C1A98D" points="79.875,29.5 64.688,23.125 61.75,27.75 79.875,37.063 "/>
<path fill="none" stroke="#000000" d="M54.5,60.016c0,2.615-2.189,4.734-4.891,4.734H31.516c-2.701,0-4.891-2.119-4.891-4.734
	V40.484c0-2.615,2.189-4.734,4.891-4.734h18.094c2.701,0,4.891,2.119,4.891,4.734V60.016z"/>
<path d="M48.813,43.75c0,0.587-0.476,1.063-1.063,1.063H33.125c-0.587,0-1.063-0.476-1.063-1.063l0,0
	c0-0.587,0.476-1.063,1.063-1.063H47.75C48.337,42.688,48.813,43.163,48.813,43.75L48.813,43.75z"/>
<path d="M49.25,50.25c0,0.725-0.588,1.313-1.313,1.313h-14.25c-0.725,0-1.313-0.588-1.313-1.313l0,0
	c0-0.725,0.587-1.313,1.313-1.313h14.25C48.662,48.938,49.25,49.525,49.25,50.25L49.25,50.25z"/>
<path d="M49.25,56.875c0,0.69-0.56,1.25-1.25,1.25H33.625c-0.69,0-1.25-0.56-1.25-1.25l0,0c0-0.69,0.56-1.25,1.25-1.25H48
	C48.69,55.625,49.25,56.185,49.25,56.875L49.25,56.875z"/>
</svg>
