<?xml version="1.0" encoding="utf-8"?>
<!-- Generator: Adobe Illustrator 17.0.0, SVG Export Plug-In . SVG Version: 6.00 Build 0)  -->
<!DOCTYPE svg PUBLIC "-//W3C//DTD SVG 1.1//EN" "http://www.w3.org/Graphics/SVG/1.1/DTD/svg11.dtd">
<svg version="1.1" xmlns="http://www.w3.org/2000/svg" xmlns:xlink="http://www.w3.org/1999/xlink" x="0px" y="0px"
	 width="422.015px" height="354.178px" viewBox="0 0 422.015 354.178" enable-background="new 0 0 422.015 354.178"
	 xml:space="preserve">
<g id="Layer_1">
	<g enable-background="new    ">
		<path fill="#686868" stroke="#FFFFFF" stroke-miterlimit="10" d="M60.358,10.83c2.916-0.187,5.518,3.306,6.421,5.992
			c4.091,41.091,6.576,82.833,12.865,123.967c5.374-1.807,14.516-4.77,21.623-5.224c3.281-0.209,6.254,0.515,6.487,4.159
			c0.151,2.369-0.279,4.227-3.307,5.518c-6.056,2.583-14.28,2.743-20.541,4.974c-2.334,0.697-4.769,2.683-7.685,2.869
			c-2.187,0.14-5.448-2.213-5.963-4.559c-3.585-21.727-4.177-45.293-6.645-66.726l-5.247-44.86l-1.479-23.144
			C57.671,11.733,58.717,10.934,60.358,10.83z"/>
		<path fill="#686868" stroke="#FFFFFF" stroke-miterlimit="10" d="M140.197,6.091c32.852,1.558,33.077,79.492,32.804,103.845
			c-0.425,13.384-5.688,36.958-23.911,38.123c-32.255,2.062-37.231-52.878-38.594-74.199
			C109.017,50.717,107.943,8.154,140.197,6.091z M120.837,72.467c3.413,53.394,14.186,67.343,27.124,66.516
			c17.858-1.142,15.082-47.439,14.348-58.92l-0.046-0.729c-0.897-14.032-7.986-64.811-25.298-63.704
			c-13.667,0.874-17.553,31.678-16.97,40.79C120.185,62.263,120.511,67.364,120.837,72.467z"/>
		<path fill="#686868" stroke="#FFFFFF" stroke-miterlimit="10" d="M190.859,77.323c-1.456-22.778-1.705-69.604,28.805-73.201
			l1.446-0.276c7.107-0.455,20.52,3.262,20.962,10.187c0.047,0.729-0.089,1.47-0.396,2.404c-3.085,8.98-10.096-3.38-20.759-4.162
			l-0.911,0.059c-16.625,3.258-21.206,26.058-19.261,56.489l0.256,4.01l1.634,19.839c1.509,12.164,7.188,40.893,23.589,39.844
			l0.729-0.046c11.981-1.498,12.23-26.214,12.229-34.815c0.333-6.242,0.836-12.678,0.041-19.397
			c-1.281-11.445-20.716,2.239-21.88-7.384c-0.268-4.191,4.775-5.429,7.874-5.626l3.269-0.393c4.362-0.462,20.01-1.828,20.487,5.644
			l0.222,3.462c0.179,5.661,0.014,25.982-0.164,28.921c-0.615,16.141-2.966,36.601-22.407,38.759l-1.458,0.093
			c-27.881,1.782-32.716-42.372-34.145-61.858L190.859,77.323z"/>
		<path fill="#686868" stroke="#FFFFFF" stroke-miterlimit="10" d="M266.297,6.63c1.042-3.726,1.942-3.967,5.769-4.211
			c5.285-0.338,5.436,2.031,5.774,7.316c0.035,0.547,0.003,2.926,0.027,3.291l2.501,124.996c0.148,8.041-10.01,9.422-10.348,4.138
			L266.297,6.63z"/>
		<path fill="#686868" stroke="#FFFFFF" stroke-miterlimit="10" d="M298.295,9.158c-0.83-7.266,8.913-12.28,13.416-1.955
			l43.617,98.396c-0.331-8.029-1.738-52.952-1.787-70.88c-0.152-10.968-1.592-22.038,0.125-32.395
			c-0.128-2.004,1.876-2.132,4.609-2.307c4.385-0.098,4.761,0.061,4.835,4.083c0.665,18.986-0.856,38.112-0.374,57.112
			c0.311,10.593,1.715,61.186,2.391,71.756c-1.031,3.908-6.82,2.083-8.476-0.922c-2.066-3.711-3.757-7.262-48.996-108.117
			l5.877,111.971c0.35,5.466-8.979,5.513-9.224,1.687L298.295,9.158z"/>
	</g>
	<g enable-background="new    ">
		<path fill="#161616" stroke="#FFFFFF" stroke-miterlimit="10" d="M1.284,329.227c0.76-41.074,2.987-82.486,4.843-123.54
			c0.521-8.391,3.624-8.333,10.926-8.198l1.826,0.034c16.794,0.311,27.362,11.463,27.065,27.527l-0.037,2.008
			c-0.247,13.326-4.002,28.778-16.202,36.77c0.896,0.93,5.003,5.937,5.71,7.229c8.015,10.921,5.523,36.989,6.204,49.603
			c-0.021,1.095,0.919,9.513,0.899,10.607l-0.027,1.46c-0.057,3.104-2.985,3.415-5.358,3.371l-0.183-0.003
			c-2.008-0.038-4.381-0.081-5.064-2.65c-0.071-6.028-1.197-33.988-1.448-40.202c-0.564-8.958-2.164-21.223-13.299-21.429
			l-2.921-0.055c-0.396,1.637-1.261,8.926-1.291,10.568c-0.213,1.64-1.875,42.149-2.345,57.661
			c-0.064,3.469,0.412,7.313-4.151,7.229C4.421,347.18,2.244,346.41,1,344.56L1.284,329.227z M16.83,258.842
			c12.961,0.24,18.333-23.583,18.488-31.98c0.159-8.58-3.655-19.606-14.06-19.799c-2.738-0.051-4.594,1.558-4.652,4.662
			c-0.111,15.884-1.818,29.184-2.119,45.43C14.46,258.616,15.734,258.823,16.83,258.842z"/>
		<path fill="#161616" stroke="#FFFFFF" stroke-miterlimit="10" d="M64.423,213.34c0.061-3.287,3.222-6.332,6.507-6.271
			l28.844,0.533c1.095,0.021,4.695,2.825,4.86,3.742c0.176,0.368,0.173,0.551,0.166,0.916c-0.067,3.65-5.026,5.203-7.947,5.149
			l-21.907-0.405l-0.209,60.623l19.77-2.557l0.913,0.018c8.579,0.158,5.139,8.495-2.184,9.456l-18.306,2.4l-1.43,47.635
			c1.64,0.213,7.846,0.328,9.49,0.358c12.231,0.227,21.254-3.807,21.646,4.601c0.251,6.214-40.628,4.727-40.563,1.259L64.423,213.34
			z"/>
		<path fill="#161616" stroke="#FFFFFF" stroke-miterlimit="10" d="M113.15,274.321c0.422-22.819,4.025-69.501,34.724-70.576
			l1.464-0.155c7.119,0.132,20.179,4.938,20.051,11.876c-0.014,0.729-0.21,1.456-0.592,2.361c-3.813,8.695-9.783-4.197-20.345-5.854
			l-0.913-0.017c-16.835,1.881-23.274,24.222-23.839,54.708l-0.074,4.016l-0.003,19.905c0.504,12.245,3.801,41.342,20.23,41.646
			l0.729,0.014c12.063-0.508,14.344-25.118,15.05-33.688c0.845-6.193,1.876-12.566,1.636-19.328
			c-0.335-11.51-20.827,0.528-21.195-9.157c0.078-4.198,5.206-5.017,8.309-4.96l3.29-0.121c4.384-0.102,20.091-0.177,19.952,7.309
			l-0.064,3.468c-0.287,5.657-2.123,25.893-2.541,28.807c-1.941,16.034-5.967,36.229-25.517,36.781l-1.461-0.027
			c-27.93-0.517-29.116-44.913-28.938-64.45L113.15,274.321z"/>
		<path fill="#161616" stroke="#FFFFFF" stroke-miterlimit="10" d="M194.141,210.08c1.346-3.628,2.262-3.794,6.096-3.723
			c5.293,0.098,5.249,2.471,5.151,7.765c-0.01,0.548-0.236,2.918-0.243,3.283l-7.787,124.763c-0.514,8.025-10.75,8.566-10.651,3.272
			L194.141,210.08z"/>
		<path fill="#161616" stroke="#FFFFFF" stroke-miterlimit="10" d="M221.428,314.49c7.262,2.327,0.027,18.263,9.057,23.726
			l1.095,0.021c10.224,0.189,13.404-13.813,13.543-21.298c0.186-10.041-0.346-20.825-4.368-30.395
			c-8.215-19.875-26.349-36.645-25.93-59.281c0.188-10.223,6.71-27.085,19.306-26.852c8.032,0.148,21.24,6.784,21.064,16.277
			c-0.064,3.468-1.197,5.456-4.848,5.389c-7.119-0.132-4.727-11.045-14.767-11.23c-9.31-0.172-10.28,12.775-10.398,19.164
			c-0.341,18.438,14.937,31.686,22.867,47.171c7.225,14.195,10.68,34.713,6.042,48.505c-3.097,9.439-11.551,22.248-22.687,22.042
			c-13.509-0.25-17.396-17.123-17.194-28.076C214.268,316.549,218.524,313.524,221.428,314.49z"/>
		<path fill="#161616" stroke="#FFFFFF" stroke-miterlimit="10" d="M281.715,214.621c-11.331,0.521-16.439,0.244-16.747-2.865
			c0.479-6.2,0.521-8.392,19.485-6.944l15.334,0.283c4.013,0.257,10.757,0.93,10.659,6.224c-0.031,1.644-2.072,3.431-3.715,3.4
			l-15.335-0.284l1.324,115.984c-0.03,1.643-3.699,2.488-4.794,2.468c-1.096-0.02-4.729-1.001-4.699-2.644L281.715,214.621z"/>
		<path fill="#161616" stroke="#FFFFFF" stroke-miterlimit="10" d="M318.542,218.042c0.061-3.287,3.222-6.332,6.508-6.271
			l28.843,0.533c1.095,0.021,4.695,2.825,4.861,3.742c0.175,0.368,0.172,0.551,0.165,0.916c-0.067,3.65-5.026,5.203-7.947,5.149
			l-21.906-0.405l-0.209,60.623l19.77-2.557l0.913,0.018c8.58,0.158,5.139,8.495-2.184,9.456l-18.306,2.4l-1.43,47.635
			c1.64,0.213,7.847,0.328,9.489,0.358c12.231,0.227,21.254-3.807,21.646,4.601c0.25,6.214-40.628,4.727-40.563,1.259
			L318.542,218.042z"/>
		<path fill="#161616" stroke="#FFFFFF" stroke-miterlimit="10" d="M377.35,336.185c0.761-41.074,2.987-82.485,4.843-123.539
			c0.521-8.391,3.624-8.334,10.926-8.198l1.826,0.033c16.794,0.312,27.362,11.464,27.064,27.528l-0.037,2.008
			c-0.246,13.326-4.002,28.778-16.202,36.77c0.896,0.93,5.003,5.936,5.71,7.228c8.015,10.922,5.523,36.99,6.204,49.603
			c-0.021,1.095,0.919,9.514,0.898,10.608l-0.027,1.46c-0.057,3.104-2.983,3.415-5.357,3.371l-0.183-0.004
			c-2.007-0.037-4.381-0.081-5.064-2.65c-0.071-6.027-1.196-33.987-1.446-40.201c-0.564-8.958-2.165-21.224-13.3-21.43l-2.921-0.054
			c-0.396,1.636-1.261,8.925-1.291,10.567c-0.213,1.641-1.876,42.15-2.346,57.662c-0.063,3.469,0.412,7.313-4.151,7.229
			c-2.008-0.037-4.185-0.809-5.429-2.658L377.35,336.185z M392.896,265.801c12.962,0.24,18.333-23.583,18.488-31.98
			c0.159-8.58-3.654-19.606-14.061-19.799c-2.737-0.051-4.594,1.557-4.651,4.661c-0.111,15.885-1.818,29.185-2.118,45.431
			C390.527,265.575,391.801,265.781,392.896,265.801z"/>
	</g>
</g>
<g id="Layer_2">
</g>
</svg>
