<?xml version="1.0" encoding="utf-8"?>
<!-- Generator: Adobe Illustrator 17.0.0, SVG Export Plug-In . SVG Version: 6.00 Build 0)  -->
<!DOCTYPE svg PUBLIC "-//W3C//DTD SVG 1.1//EN" "http://www.w3.org/Graphics/SVG/1.1/DTD/svg11.dtd">
<svg version="1.1" xmlns="http://www.w3.org/2000/svg" xmlns:xlink="http://www.w3.org/1999/xlink" x="0px" y="0px"
	 width="1306.293px" height="293.344px" viewBox="0 0 1306.293 293.344" enable-background="new 0 0 1306.293 293.344"
	 xml:space="preserve">
<g id="Layer_1">
	
		<image display="none" overflow="visible" enable-background="new    " width="124" height="53" xlink:href="D1766572.jpg"  transform="matrix(0.9931 0 0 0.9931 340.3127 332.3592)">
	</image>
	<g display="none">
		<text transform="matrix(1 0 0 1 460.295 128.2021)" display="inline" font-family="'NetflixSans-Bold'" font-size="135.0406">ESPM</text>
	</g>
	<g display="none">
		
			<text transform="matrix(1 0 0 1 460.295 257.8444)" display="inline" fill="#F17322" font-family="'NetflixSans-Bold'" font-size="135.0406">BLOGSPACE</text>
	</g>
	<g>
		<g>
			<path d="M470.018,130.694V49.426h60.016v16.347h-41.101V81.42h39.583v16.347h-39.583v16.58h41.685v16.347H470.018z"/>
			<path d="M574.52,132.562c-9.965,0-17.943-2.257-23.937-6.772c-5.995-4.514-9.848-10.819-11.56-18.916h18.799
				c0.855,2.803,2.723,5.099,5.604,6.889c2.879,1.792,6.498,2.686,10.859,2.686c4.047,0,7.316-0.739,9.808-2.218
				c2.49-1.478,3.736-3.541,3.736-6.189c0-1.635-0.371-3.036-1.109-4.204c-0.741-1.167-2.18-2.198-4.32-3.094
				c-2.142-0.894-5.353-1.693-9.633-2.394l-8.641-1.518c-7.473-1.323-13.098-3.795-16.873-7.415
				c-3.777-3.619-5.663-8.892-5.663-15.821c0-5.371,1.402-10.002,4.204-13.895c2.802-3.892,6.615-6.889,11.442-8.991
				c4.826-2.102,10.197-3.153,16.113-3.153c8.951,0,16.347,2.102,22.185,6.305c5.839,4.203,9.379,10.237,10.626,18.098h-18.799
				c-0.701-2.645-2.201-4.689-4.496-6.13c-2.297-1.439-5.391-2.16-9.282-2.16c-4.049,0-7.221,0.741-9.516,2.219
				c-2.298,1.479-3.445,3.465-3.445,5.955c0,2.259,0.935,4.048,2.803,5.371c1.869,1.324,5.605,2.492,11.209,3.503l8.524,1.401
				c15.88,2.726,23.819,10.704,23.819,23.936c0,5.683-1.383,10.509-4.145,14.479c-2.764,3.97-6.579,6.967-11.443,8.991
				C586.527,131.55,580.902,132.562,574.52,132.562z"/>
			<path d="M619.706,130.694V49.426h33.628c6.694,0,12.454,1.168,17.281,3.503c4.826,2.335,8.524,5.605,11.093,9.808
				c2.569,4.204,3.853,9.108,3.853,14.712s-1.284,10.529-3.853,14.77c-2.569,4.244-6.267,7.532-11.093,9.867
				c-4.827,2.335-10.587,3.503-17.281,3.503h-14.595v25.104H619.706z M638.739,89.476h11.794c5.447,0,9.438-1.031,11.968-3.094
				c2.529-2.062,3.796-5.039,3.796-8.932c0-3.813-1.267-6.752-3.796-8.815c-2.53-2.062-6.52-3.094-11.968-3.094h-11.794V89.476z"/>
			<path d="M715.568,130.694h-18.099V49.426h21.368l23.119,38.065l22.419-38.065h21.251v81.267h-18.099V75.465l-26.038,43.202
				l-25.921-42.969V130.694z"/>
		</g>
	</g>
	<g>
		<g>
			<path fill="#F17322" d="M470.018,252.79v-81.267h36.43c5.605,0,10.509,0.858,14.712,2.569c4.203,1.713,7.491,4.204,9.867,7.474
				c2.374,3.269,3.561,7.279,3.561,12.027c0,3.893-0.974,7.259-2.919,10.1c-1.947,2.842-4.827,5.041-8.641,6.597
				c4.826,1.558,8.446,4.01,10.86,7.356c2.412,3.347,3.619,7.239,3.619,11.676c0,4.827-1.266,8.99-3.795,12.494
				c-2.531,3.503-6.034,6.208-10.509,8.115c-4.477,1.908-9.633,2.861-15.471,2.861H470.018z M504.346,187.052H488.7v16.463h15.646
				c3.813,0,6.732-0.68,8.757-2.043c2.024-1.361,3.036-3.445,3.036-6.248C516.14,189.778,512.208,187.052,504.346,187.052z
				 M506.332,218.811H488.7v18.449h17.631c8.25,0,12.377-3.074,12.377-9.224C518.708,221.887,514.582,218.811,506.332,218.811z"/>
			<path fill="#F17322" d="M608.965,236.326v16.463H550.35v-81.267h19.033v64.804H608.965z"/>
			<path fill="#F17322" d="M656.722,254.658c-6.072,0-11.659-1.051-16.755-3.153c-5.099-2.102-9.499-5.059-13.194-8.874
				c-3.698-3.813-6.579-8.309-8.641-13.487c-2.064-5.176-3.095-10.839-3.095-16.989c0-6.148,1.031-11.811,3.095-16.989
				c2.061-5.175,4.942-9.671,8.641-13.486c3.696-3.813,8.095-6.773,13.194-8.875c5.097-2.102,10.683-3.152,16.755-3.152
				c6.148,0,11.773,1.05,16.873,3.152c5.097,2.102,9.516,5.061,13.253,8.875c3.736,3.815,6.635,8.31,8.699,13.486
				c2.061,5.178,3.094,10.841,3.094,16.989c0,6.151-1.033,11.813-3.094,16.989c-2.064,5.178-4.963,9.673-8.699,13.487
				c-3.736,3.815-8.156,6.772-13.253,8.874C668.495,253.607,662.87,254.658,656.722,254.658z M656.722,237.844
				c4.437,0,8.349-1.069,11.734-3.211c3.386-2.14,6.052-5.137,7.998-8.99c1.945-3.853,2.92-8.348,2.92-13.487
				c0-5.137-0.974-9.633-2.92-13.486c-1.946-3.854-4.612-6.849-7.998-8.991c-3.386-2.14-7.297-3.211-11.734-3.211
				c-4.36,0-8.232,1.072-11.618,3.211c-3.386,2.142-6.033,5.137-7.94,8.991c-1.908,3.853-2.861,8.348-2.861,13.486
				c0,5.138,0.952,9.634,2.861,13.487c1.907,3.853,4.554,6.851,7.94,8.99C648.49,236.775,652.361,237.844,656.722,237.844z"/>
			<path fill="#F17322" d="M748.264,254.658c-8.252,0-15.453-1.83-21.602-5.488c-6.15-3.659-10.937-8.699-14.361-15.121
				c-3.427-6.422-5.138-13.72-5.138-21.893c0-8.25,1.712-15.568,5.138-21.952c3.424-6.382,8.212-11.403,14.361-15.062
				c6.149-3.658,13.312-5.488,21.485-5.488c9.417,0,17.358,2.276,23.82,6.83c6.46,4.554,10.702,10.958,12.727,19.208h-19.382
				c-1.168-2.724-3.173-4.943-6.014-6.655c-2.842-1.712-6.558-2.569-11.151-2.569c-6.617,0-11.892,2.298-15.821,6.889
				c-3.931,4.593-5.896,10.859-5.896,18.799c0,7.785,1.985,14.032,5.955,18.74c3.97,4.711,9.458,7.064,16.464,7.064
				c3.736,0,6.986-0.68,9.749-2.043c2.763-1.361,4.923-3.191,6.481-5.489c1.556-2.295,2.336-4.805,2.336-7.531v-0.934h-19.266
				v-15.647h37.949v12.027c0,6.773-1.48,12.902-4.437,18.391c-2.96,5.488-7.259,9.848-12.902,13.077
				C763.11,253.041,756.279,254.658,748.264,254.658z"/>
			<path fill="#F17322" d="M828.713,254.658c-9.966,0-17.943-2.257-23.937-6.773c-5.995-4.513-9.848-10.818-11.56-18.915h18.799
				c0.855,2.803,2.723,5.099,5.604,6.889c2.879,1.792,6.498,2.686,10.859,2.686c4.047,0,7.316-0.739,9.808-2.218
				c2.49-1.479,3.736-3.541,3.736-6.189c0-1.635-0.371-3.036-1.11-4.204c-0.741-1.167-2.18-2.198-4.32-3.094
				c-2.142-0.894-5.353-1.693-9.633-2.394l-8.641-1.517c-7.473-1.323-13.098-3.796-16.873-7.415
				c-3.777-3.62-5.663-8.892-5.663-15.821c0-5.371,1.402-10.002,4.204-13.895c2.802-3.892,6.615-6.889,11.442-8.991
				c4.826-2.102,10.197-3.152,16.113-3.152c8.951,0,16.347,2.102,22.185,6.305c5.839,4.203,9.38,10.237,10.626,18.099h-18.799
				c-0.701-2.645-2.2-4.689-4.495-6.13c-2.297-1.44-5.391-2.16-9.282-2.16c-4.049,0-7.221,0.741-9.516,2.218
				c-2.298,1.479-3.445,3.465-3.445,5.955c0,2.259,0.935,4.049,2.802,5.371c1.869,1.325,5.605,2.493,11.209,3.503l8.524,1.401
				c15.88,2.726,23.819,10.704,23.819,23.937c0,5.683-1.383,10.508-4.145,14.479c-2.764,3.969-6.579,6.967-11.443,8.99
				C840.719,253.646,835.095,254.658,828.713,254.658z"/>
			<path fill="#F17322" d="M873.899,252.79v-81.267h33.628c6.694,0,12.454,1.168,17.281,3.503c4.826,2.335,8.524,5.604,11.093,9.808
				c2.569,4.204,3.853,9.108,3.853,14.713c0,5.604-1.284,10.529-3.853,14.77c-2.569,4.244-6.267,7.532-11.093,9.867
				c-4.827,2.336-10.587,3.503-17.281,3.503h-14.595v25.104H873.899z M892.932,211.572h11.794c5.447,0,9.438-1.031,11.968-3.095
				c2.529-2.061,3.796-5.038,3.796-8.932c0-3.813-1.267-6.753-3.796-8.815c-2.53-2.062-6.52-3.095-11.968-3.095h-11.794V211.572z"/>
			<path fill="#F17322" d="M998.834,252.79l-5.605-16.23h-30.825l-5.604,16.23h-19.15l30.709-81.267h19.85l30.709,81.267H998.834z
				 M968.009,220.33h19.5l-9.692-28.14L968.009,220.33z"/>
			<path fill="#F17322" d="M1021.135,212.156c0-8.25,1.674-15.587,5.022-22.01c3.346-6.422,7.998-11.442,13.953-15.062
				c5.955-3.62,12.863-5.429,20.726-5.429c7.24,0,13.388,1.305,18.449,3.911c5.059,2.609,9.087,6.151,12.085,10.626
				c2.996,4.477,5,9.516,6.013,15.12h-19.616c-0.779-3.812-2.609-6.907-5.488-9.282c-2.881-2.374-6.696-3.562-11.443-3.562
				c-6.15,0-11.093,2.317-14.829,6.948c-3.736,4.632-5.604,10.879-5.604,18.74c0,7.785,1.868,14.012,5.604,18.682
				c3.736,4.671,8.679,7.006,14.829,7.006c4.747,0,8.6-1.127,11.56-3.386c2.957-2.257,4.826-5.214,5.605-8.874h19.382
				c-0.934,5.527-2.919,10.49-5.955,14.887c-3.036,4.398-7.084,7.863-12.143,10.392c-5.061,2.528-11.209,3.795-18.449,3.795
				c-7.863,0-14.77-1.81-20.726-5.429c-5.955-3.62-10.607-8.641-13.953-15.063C1022.808,227.744,1021.135,220.408,1021.135,212.156z
				"/>
			<path fill="#F17322" d="M1109.64,252.79v-81.267h60.017v16.347h-41.101v15.646h39.583v16.347h-39.583v16.58h41.684v16.347
				H1109.64z"/>
		</g>
	</g>
</g>
<g id="Layer_3" display="none">
	<polygon display="inline" fill="#F17322" points="227.297,226.344 181.75,293.344 0,55.844 49.356,0.467 	"/>
	<polygon display="inline" fill="#F17322" points="5,227.594 39.75,294.01 241.283,49.983 180.1,0 	"/>
	<polygon display="inline" fill="#9A24A2" points="303.083,61.344 232.666,144.344 162.699,144.344 231.75,61.344 	"/>
	<polygon display="inline" fill="#9A24A2" points="292.417,226.344 248.083,293.344 181.75,293.344 227.297,226.344 	"/>
	<polygon display="inline" fill="#9A24A2" points="113.648,204.352 39.75,294.01 115.417,293.344 147.954,249.181 	"/>
	<polygon display="inline" fill="#F51B69" points="49.356,0.467 124.75,0.344 153.184,34.985 115.32,84.201 	"/>
	<polyline display="inline" fill="#F51B69" points="231.75,61.344 303.083,61.344 257.75,0.344 179.75,0.344 	"/>
	<polyline display="inline" fill="#F51B69" points="232.666,144.344 292.417,226.344 227.297,226.344 162.699,144.344 	"/>
</g>
<g id="Layer_2">
	<path fill="#7A1E84" d="M234.567,156.458c0,0-18.399-16.692-39.17-20.391c-20.77-3.699-33.494-2.361-33.494-2.361
		s-30.597-18.375-19.807-36.903c0,0,15.643-22.519,38.909-20.841c0,0,51.496-5.121,77.399,31.432
		c25.488,35.969-10.216,55.065-18.289,56.13L234.567,156.458z"/>
	<path fill="#F17322" d="M15.91,79.02l7.54,37.984l62.809,17l30.373,30.515l-11.168,34.499l56.407,23.402l33.052-26.319l54.012,7.54
		l43.532,35.566l49.744-17.403l-29.97-36.419l22.857-27.599l56.051,1.043l-5.975-37.273l-2.087-2.087l-58.422-8.156L290.903,77.55
		l15.269-36.799l-3.699-1.897l-52.542-25.987l-31.582,27.789l-55.103-6.734L117.343,1.298L67.741,14.86l33.574,40.023L83.01,82.672
		L15.91,79.02z M190.631,79.483c21.961,0.429,45.08,10.25,58.559,22.099c13.514,11.88,20.242,28.352,12.578,40.637
		c-12.889,20.66-61.782,25.417-97.982-6.789C127.842,103.451,153.835,78.764,190.631,79.483z"/>
	<polygon fill="#9A24A2" points="391.151,158.829 379.675,213.458 335.207,213.292 322.232,197.524 335.099,157.786 	"/>
	<polygon fill="#9A24A2" points="248.936,203.642 233.144,257.844 180.033,245.135 194.923,196.102 	"/>
	<polygon fill="#9A24A2" points="147.502,277.666 91.261,250.257 105.464,199.019 161.871,222.421 	"/>
	<polygon fill="#9A24A2" points="23.45,117.004 10.148,169.143 71.755,185.212 86.258,134.005 	"/>
	<polygon fill="#F51B69" points="322.232,197.524 335.099,157.786 312.242,185.385 	"/>
	<polyline fill="#F51B69" points="292.468,239.208 277.459,293.054 326.184,276.528 342.212,221.804 	"/>
	<polyline fill="#F51B69" points="194.923,196.102 161.871,222.421 147.502,277.666 180.033,245.135 	"/>
	<polygon fill="#EDAC01" points="306.172,40.752 295.408,82.055 290.903,77.55 	"/>
	<polygon fill="#7A1E84" points="277.459,293.054 233.144,257.844 248.936,203.642 292.468,239.208 	"/>
	<polygon fill="#7A1E84" points="101.144,214.602 71.755,185.212 86.258,134.005 116.631,164.52 	"/>
	<polygon fill="#7A1E84" points="23.45,117.004 15.91,79.02 0,133.815 10.148,169.143 	"/>
	<polygon fill="#7A1E84" points="67.741,14.86 53.609,69.204 63.723,81.622 83.01,82.672 101.315,54.883 	"/>
</g>
</svg>
